<svg xmlns="http://www.w3.org/2000/svg" width="25" height="25" viewBox="0 0 25 25" fill="none">
  <g clip-path="url(#clip0_2007_357)">
    <path d="M3.92074 10.2271H1.1367C0.509043 10.2271 0 10.7362 0 11.3638V23.8638C0 24.491 0.509043 25 1.1367 25H3.92074C4.5484 25 5.05692 24.491 5.05692 23.8638V11.3638C5.05692 10.7362 4.5484 10.2271 3.92074 10.2271Z" fill="#B1B1B1"/>
    <path d="M10.5687 13.6356H7.78465C7.15646 13.6356 6.64795 14.1447 6.64795 14.7723V23.8628C6.64795 24.491 7.15646 24.9995 7.78465 24.9995H10.5687C11.1964 24.9995 11.7049 24.4904 11.7049 23.8628V14.7723C11.7049 14.1447 11.1964 13.6356 10.5687 13.6356Z" fill="#B1B1B1"/>
    <path d="M17.2156 13.6356H14.4316C13.8039 13.6356 13.2954 14.1447 13.2954 14.7723V23.8628C13.2954 24.491 13.8039 24.9995 14.4316 24.9995H17.2156C17.8438 24.9995 18.3523 24.4904 18.3523 23.8628V14.7723C18.3523 14.1447 17.8438 13.6356 17.2156 13.6356Z" fill="#B1B1B1"/>
    <path d="M23.8631 10.2271H21.079C20.4514 10.2271 19.9429 10.7362 19.9429 11.3638V23.8638C19.9429 24.4915 20.4514 25 21.079 25H23.8631C24.4907 25 24.9998 24.4904 24.9998 23.8638V11.3638C24.9998 10.7362 24.4907 10.2271 23.8631 10.2271Z" fill="#B1B1B1"/>
    <path d="M12.8315 6.84575V8.89149C13.4507 8.85054 14.1034 8.56011 14.1034 7.87873C14.1034 7.17554 13.3879 6.96969 12.8315 6.84575Z" fill="#B1B1B1"/>
    <path d="M11.0522 4.39734C11.0522 4.91436 11.4368 5.21329 12.2118 5.36861V3.51808C11.5076 3.53883 11.0522 3.95266 11.0522 4.39734Z" fill="#B1B1B1"/>
    <path d="M12.5 0C9.05372 0 6.25 2.80426 6.25 6.25C6.25 9.69468 9.05372 12.4989 12.5 12.4989C15.9463 12.4989 18.75 9.69468 18.75 6.25C18.75 2.80426 15.9463 0 12.5 0ZM12.8314 9.94628V10.5862C12.8314 10.7622 12.6963 10.9378 12.5197 10.9378C12.3452 10.9378 12.2117 10.7622 12.2117 10.5862V9.94628C10.4654 9.90372 9.59681 8.86011 9.59681 8.04362C9.59681 7.63138 9.84628 7.39309 10.2367 7.39309C11.3941 7.39309 10.4941 8.81915 12.2117 8.89096V6.73138C10.6798 6.45319 9.75213 5.78138 9.75213 4.63457C9.75213 3.22979 10.9202 2.50532 12.2117 2.46489V1.91383C12.2117 1.73777 12.3452 1.56223 12.5197 1.56223C12.6963 1.56223 12.8314 1.73777 12.8314 1.91383V2.46489C13.6367 2.48617 15.2904 2.99149 15.2904 4.00479C15.2904 4.40745 14.9894 4.64468 14.6378 4.64468C13.9654 4.64468 13.975 3.53989 12.8314 3.51862V5.48191C14.1952 5.77181 15.4032 6.17447 15.4032 7.76596C15.4032 9.15 14.3702 9.85213 12.8314 9.94628Z" fill="#B1B1B1"/>
  </g>
  <defs>
    <clipPath id="clip0_2007_357">
      <rect width="25" height="25" fill="white"/>
    </clipPath>
  </defs>
</svg>