<svg width="80" height="80" viewBox="0 0 75 58" fill="none" xmlns="http://www.w3.org/2000/svg">
<g filter="url(#filter0_d_2007_400)">
<rect x="15" y="12" width="46" height="35" rx="6" fill="#0043C0"/>
</g>
<path d="M42.75 33.4048H43V33.9286C42.8505 33.9286 42.686 33.9286 42.5 33.9286C41.948 33.9286 41.5 34.3979 41.5 34.9762C41.5 35.1679 41.5 35.3455 41.5 35.5H24.5C24.5 35.3455 24.5 35.1679 24.5 34.9762C24.5 34.3979 24.052 33.9286 23.5 33.9286C23.3405 33.9286 23.167 33.9286 23 33.9286V33.4048H23.25C23.388 33.4048 23.5 33.2874 23.5 33.1429C23.5 32.9983 23.388 32.881 23.25 32.881H23V32.3571H23.25C23.388 32.3571 23.5 32.2398 23.5 32.0952C23.5 31.9507 23.388 31.8333 23.25 31.8333H23V31.3095H23.25C23.388 31.3095 23.5 31.1922 23.5 31.0476C23.5 30.903 23.388 30.7857 23.25 30.7857H23V30.2619H23.25C23.388 30.2619 23.5 30.1446 23.5 30C23.5 29.8554 23.388 29.7381 23.25 29.7381H23V29.2143H23.25C23.388 29.2143 23.5 29.097 23.5 28.9524C23.5 28.8078 23.388 28.6905 23.25 28.6905H23V28.1667H23.25C23.388 28.1667 23.5 28.0493 23.5 27.9048C23.5 27.7602 23.388 27.6429 23.25 27.6429H23V27.119H23.25C23.388 27.119 23.5 27.0017 23.5 26.8571C23.5 26.7126 23.388 26.5952 23.25 26.5952H23V26.0714C23.1495 26.0714 23.314 26.0714 23.5 26.0714C24.052 26.0714 24.5 25.6021 24.5 25.0238C24.5 24.8321 24.5 24.6545 24.5 24.5H41.5C41.5 24.6545 41.5 24.8321 41.5 25.0238C41.5 25.6021 41.948 26.0714 42.5 26.0714C42.686 26.0714 42.8505 26.0714 43 26.0714V26.5952H42.75C42.612 26.5952 42.5 26.7126 42.5 26.8571C42.5 27.0017 42.612 27.119 42.75 27.119H43V27.6429H42.75C42.612 27.6429 42.5 27.7602 42.5 27.9048C42.5 28.0493 42.612 28.1667 42.75 28.1667H43V28.6905H42.75C42.612 28.6905 42.5 28.8078 42.5 28.9524C42.5 29.097 42.612 29.2143 42.75 29.2143H43V29.7381H42.75C42.612 29.7381 42.5 29.8554 42.5 30C42.5 30.1446 42.612 30.2619 42.75 30.2619H43V30.7857H42.75C42.612 30.7857 42.5 30.903 42.5 31.0476C42.5 31.1922 42.612 31.3095 42.75 31.3095H43V31.8333H42.75C42.612 31.8333 42.5 31.9507 42.5 32.0952C42.5 32.2398 42.612 32.3571 42.75 32.3571H43V32.881H42.75C42.612 32.881 42.5 32.9983 42.5 33.1429C42.5 33.2874 42.612 33.4048 42.75 33.4048ZM41 27.119C41 26.5408 40.552 26.0714 40 26.0714H26C25.448 26.0714 25 26.5408 25 27.119V32.881C25 33.4592 25.448 33.9286 26 33.9286H40C40.552 33.9286 41 33.4592 41 32.881V27.119ZM40 33.4048H26C25.7235 33.4048 25.5 33.1701 25.5 32.881V27.119C25.5 26.8294 25.7235 26.5952 26 26.5952H40C40.276 26.5952 40.5 26.8294 40.5 27.119V32.881C40.5 33.1701 40.276 33.4048 40 33.4048ZM28.6935 28.6842H26.707V28.9932H27.533V31.3095H27.865V28.9932H28.693V28.6842H28.6935ZM29.384 28.6842H29.052V31.3095H29.384V28.6842ZM30.3795 29.471C30.4315 29.3075 30.523 29.1776 30.6525 29.0812C30.7815 28.9843 30.9425 28.9361 31.135 28.9361C31.3025 28.9361 31.4415 28.9796 31.552 29.0671C31.663 29.154 31.747 29.2934 31.805 29.4846L32.131 29.4039C32.064 29.1619 31.945 28.9739 31.774 28.8403C31.603 28.7067 31.392 28.6397 31.1415 28.6397C30.9205 28.6397 30.718 28.6926 30.534 28.7984C30.35 28.9042 30.2085 29.0587 30.108 29.2625C30.0085 29.4662 29.9585 29.7046 29.9585 29.9775C29.9585 30.2284 30.003 30.463 30.0915 30.6815C30.18 30.8999 30.3085 31.067 30.477 31.1822C30.6465 31.2975 30.866 31.3551 31.136 31.3551C31.3965 31.3551 31.6175 31.2802 31.798 31.1304C31.9785 30.9806 32.1035 30.7632 32.173 30.4777L31.841 30.3897C31.7955 30.6108 31.708 30.7773 31.58 30.89C31.451 31.002 31.2945 31.0581 31.1085 31.0581C30.956 31.0581 30.814 31.0167 30.683 30.9345C30.552 30.8522 30.4555 30.7276 30.3935 30.561C30.3315 30.3944 30.3 30.1996 30.3 29.9759C30.301 29.802 30.327 29.6339 30.3795 29.471ZM34.6815 28.6842H34.2325L32.9885 29.9832V28.6842H32.6565V31.3095H32.9885V30.3991L33.3995 29.9827L34.291 31.3095H34.7285L33.631 29.7486L34.6815 28.6842ZM36.969 31.0005H35.432V30.1063H36.817V29.7973H35.432V28.9932H36.9105V28.6842H35.1V31.3095H36.969V31.0005ZM39.3125 28.6842H37.326V28.9932H38.152V31.3095H38.484V28.9932H39.312L39.3125 28.6842Z" transform="scale(1.5) translate(-7.5, -10)" fill="white"/>
<defs>
<filter id="filter0_d_2007_400" x="0" y="0" width="80" height="80" filterUnits="userSpaceOnUse" color-interpolation-filters="sRGB">
<feFlood flood-opacity="0" result="BackgroundImageFix"/>
<feColorMatrix in="SourceAlpha" type="matrix" values="0 0 0 0 0 0 0 0 0 0 0 0 0 0 0 0 0 0 127 0" result="hardAlpha"/>
<feOffset dy="3"/>
<feGaussianBlur stdDeviation="9"/>
<feComposite in2="hardAlpha" operator="out"/>
<feColorMatrix type="matrix" values="0 0 0 0 0 0 0 0 0 0 0 0 0 0 0 0 0 0 0.13 0"/>
<feBlend mode="normal" in2="BackgroundImageFix" result="effect1_dropShadow_2007_400"/>
<feBlend mode="normal" in="SourceGraphic" in2="effect1_dropShadow_2007_400" result="shape"/>
</filter>
</defs>
</svg>
