<svg width="14" height="16" viewBox="0 0 14 16" fill="none" xmlns="http://www.w3.org/2000/svg">
<path d="M12.5 11.0178V11.0174C12.5001 10.864 12.4711 10.7124 12.415 10.5716C12.3589 10.4309 12.2771 10.3041 12.1751 10.1982L12.5 11.0178ZM12.5 11.0178C12.5 11.3282 12.3809 11.6225 12.1744 11.8366C11.9684 12.0502 11.6931 12.1667 11.41 12.1667H2.59C2.3069 12.1667 2.03156 12.0502 1.82562 11.8366C1.61909 11.6225 1.5 11.3282 1.5 11.0178L1.5 11.0174M12.5 11.0178L1.5 11.0174M1.5 11.0174C1.49987 10.864 1.52891 10.7124 1.58504 10.5716M1.5 11.0174L1.58504 10.5716M1.58504 10.5716C1.64113 10.4309 1.72293 10.3041 1.82492 10.1982L1.58504 10.5716ZM11.1401 9.12484L12.1749 10.198H1.82514L2.85992 9.12484L3 8.97958V8.77778V5.66667C3 4.55585 3.42568 3.49402 4.17794 2.7139C4.92961 1.9344 5.94512 1.5 7 1.5C8.05488 1.5 9.07039 1.9344 9.82206 2.7139C10.5743 3.49402 11 4.55585 11 5.66667V8.77778V8.97958L11.1401 9.12484ZM13 11.0178C13 11.4551 12.8325 11.8745 12.5343 12.1837C12.2361 12.4929 11.8317 12.6667 11.41 12.6667H2.59C2.16831 12.6667 1.76388 12.4929 1.4657 12.1837C1.16752 11.8745 1 11.4551 1 11.0178H13Z" stroke="#222222"/>
<path d="M7 15C6.40326 15 5.83097 14.7542 5.40901 14.3166C4.98705 13.879 4.75 13.2855 4.75 12.6667H9.25C9.25 13.2855 9.01295 13.879 8.59099 14.3166C8.16903 14.7542 7.59674 15 7 15ZM11.5 8.77778V5.66667C11.5 4.42899 11.0259 3.242 10.182 2.36684C9.33807 1.49167 8.19347 1 7 1C5.80653 1 4.66193 1.49167 3.81802 2.36684C2.97411 3.242 2.5 4.42899 2.5 5.66667V8.77778L1.465 9.85111C1.3174 10.0044 1.20036 10.1863 1.12057 10.3865C1.04079 10.5866 0.999817 10.8012 1 11.0178C1 11.4551 1.16752 11.8745 1.4657 12.1837C1.76388 12.4929 2.16831 12.6667 2.59 12.6667H11.41C11.8317 12.6667 12.2361 12.4929 12.5343 12.1837C12.8325 11.8745 13 11.4551 13 11.0178C13.0002 10.8012 12.9592 10.5866 12.8794 10.3865C12.7996 10.1863 12.6826 10.0044 12.535 9.85111L11.5 8.77778Z" stroke="#222222" stroke-linecap="round" stroke-linejoin="round"/>
</svg>
