<svg xmlns="http://www.w3.org/2000/svg" width="25" height="25" viewBox="0 0 25 25" fill="none">
  <g clip-path="url(#clip0_2007_336)">
    <path d="M24.7852 1.25044L23.7495 0.214648C23.5336 -0.0013673 23.2063 -0.0605469 22.9286 0.0654294L17.3654 2.52133C17.1465 2.62094 16.9906 2.82128 16.9477 3.05742C16.9051 3.29418 16.9805 3.53637 17.1505 3.70634L21.2936 7.84945C21.4636 8.01942 21.7058 8.09476 21.9425 8.05223C22.1787 8.00931 22.379 7.8535 22.4786 7.63451L24.9345 2.07124C25.0604 1.79355 25.0013 1.46635 24.7852 1.25044Z" fill="#B1B1B1"/>
    <path d="M4.73145 16.1255L0.642589 20.2143C-0.214196 21.0711 -0.214196 22.4649 0.642589 23.3216L1.67833 24.3574C2.53512 25.2142 3.92891 25.2142 4.78565 24.3574L8.87451 20.2685L4.73145 16.1255ZM4.27496 21.7711C3.98868 22.0573 3.52535 22.0573 3.23912 21.7711C2.95294 21.4848 2.95294 21.0214 3.23912 20.7353L5.25645 18.718C5.54273 18.4317 6.00601 18.4317 6.29219 18.718C6.57847 19.0043 6.57847 19.4675 6.29219 19.7537L4.27496 21.7711Z" fill="#B1B1B1"/>
    <path d="M11.9818 17.1612L7.83868 13.0181C7.26763 12.447 6.33814 12.447 5.76715 13.0181C5.19611 13.5891 5.19611 14.5186 5.76715 15.0896L9.91026 19.2327C10.4812 19.8038 11.4107 19.8038 11.9818 19.2327C12.5528 18.6618 12.5528 17.7322 11.9818 17.1612Z" fill="#B1B1B1"/>
    <path d="M19.2222 7.8494L17.1506 5.77782L11.464 11.4644C10.8919 10.8924 9.96455 10.8924 9.39243 11.4644L8.87451 11.9824L13.0176 16.1255L13.5355 15.6075C14.1076 15.0354 14.1076 14.1081 13.5355 13.536L19.2222 7.8494Z" fill="#B1B1B1"/>
    <path d="M23.7149 17.4979C22.5259 16.3089 21.0961 16.0532 19.4556 16.3464L16.1258 13.017L15.3307 13.8121C15.5925 14.796 15.3379 15.8762 14.571 16.6431L14.0542 17.1599L16.3457 19.4513C16.1147 20.7442 16.1364 21.8409 16.9394 23.0303C17.8661 24.4034 19.4879 25.1839 21.187 24.95C21.4679 24.9114 21.7025 24.7166 21.7928 24.4478C21.8831 24.1791 21.8135 23.8823 21.613 23.6818L20.6057 22.6763V20.605H22.6792L23.6809 21.6067C23.8818 21.8076 24.1793 21.8767 24.4483 21.7857C24.7173 21.6947 24.9115 21.459 24.9493 21.1774C25.1282 19.8452 24.6923 18.4749 23.7149 17.4979Z" fill="#B1B1B1"/>
    <path d="M8.64437 5.53236C8.93504 3.90898 8.69969 2.48085 7.49286 1.27314C6.67172 0.45205 5.57308 0 4.39936 0C4.20175 0 4.00624 0.0128906 3.81327 0.0384277C3.53149 0.0758299 3.2956 0.270263 3.20448 0.53955C3.11337 0.808739 3.18295 1.10639 3.38393 1.30737L4.39545 2.30883V4.39447H2.31376L1.30976 3.37641C1.10922 3.17587 0.812204 3.10649 0.543357 3.19697C0.274607 3.28745 0.0802229 3.52231 0.0415999 3.80331C-0.181544 5.42816 0.522507 7.07889 1.95898 8.04862C3.15292 8.85301 4.25614 8.87293 5.53944 8.64159L7.84027 10.9462L8.35731 10.4291C9.1242 9.66224 10.2043 9.40779 11.1882 9.66951L11.983 8.87469L8.64437 5.53236Z" fill="#B1B1B1"/>
  </g>
  <defs>
    <clipPath id="clip0_2007_336">
      <rect width="25" height="25" fill="white"/>
    </clipPath>
  </defs>
</svg>